# xmcd
#
# Track frame offsets:
#	150
#	16944
#	31793
#	48270
#	66466
#	82158
#	94692
#	109365
#	121979
#	145543
#	165400
#
# Disc length: 2408 seconds
#
# Revision: 0
# Processed by: cddbd v1.5.2PL0 Copyright (c) Steve Scherf et al.
# Submitted via: dBpowerAMP V4.0
#
DISCID=8909660b
DTITLE=Sean Riley - Farewell
DYEAR=2007
DGENRE=Blues
TTITLE0=Let Them Good Times Roll
TTITLE1=Moving On
TTITLE2=Harry Rivers
TTITLE3=Motorcycle Song
TTITLE4=Lights Out
TTITLE5=Marble Arch
TTITLE6=Isolation pt.2
TTITLE7=New Year's Eve
TTITLE8=City of a Million Thrills
TTITLE9=Twenty-Six Years
TTITLE10=Spider Blues
EXTD=
EXTT0=
EXTT1=
EXTT2=
EXTT3=
EXTT4=
EXTT5=
EXTT6=
EXTT7=
EXTT8=
EXTT9=
EXTT10=
PLAYORDER=
